<?xml version="1.0" encoding="UTF-8" standalone="no"?>
<!-- Created with Inkscape (http://www.inkscape.org/) -->

<svg
   xmlns:dc="http://purl.org/dc/elements/1.1/"
   xmlns:cc="http://creativecommons.org/ns#"
   xmlns:rdf="http://www.w3.org/1999/02/22-rdf-syntax-ns#"
   xmlns:svg="http://www.w3.org/2000/svg"
   xmlns="http://www.w3.org/2000/svg"
   xmlns:xlink="http://www.w3.org/1999/xlink"
   xmlns:sodipodi="http://sodipodi.sourceforge.net/DTD/sodipodi-0.dtd"
   xmlns:inkscape="http://www.inkscape.org/namespaces/inkscape"
   width="1280"
   height="1080"
   id="svg4266"
   version="1.1"
   inkscape:version="0.91 r13725"
   sodipodi:docname="Error.svg">
  <defs
     id="defs4268">
    <linearGradient
       id="linearGradient4800">
      <stop
         style="stop-color:#ececec;stop-opacity:1;"
         offset="0"
         id="stop4802" />
      <stop
         style="stop-color:#bbbfc2;stop-opacity:1;"
         offset="1"
         id="stop4804" />
    </linearGradient>
    <linearGradient
       id="linearGradient4792">
      <stop
         style="stop-color:#ffef00;stop-opacity:1;"
         offset="0"
         id="stop4794" />
      <stop
         style="stop-color:#000000;stop-opacity:0;"
         offset="1"
         id="stop4796" />
    </linearGradient>
    <linearGradient
       inkscape:collect="always"
       xlink:href="#linearGradient4800"
       id="linearGradient4806"
       x1="9.9475983e-014"
       y1="1071.3287"
       x2="3.5527137e-014"
       y2="0.34990761"
       gradientUnits="userSpaceOnUse"
       gradientTransform="translate(8.5237122e-7,-3.2296219e-5)" />
  </defs>
  <sodipodi:namedview
     id="base"
     pagecolor="#ffffff"
     bordercolor="#666666"
     borderopacity="1.0"
     inkscape:pageopacity="0.0"
     inkscape:pageshadow="2"
     inkscape:zoom="0.42426407"
     inkscape:cx="632.16859"
     inkscape:cy="528.73908"
     inkscape:document-units="px"
     inkscape:current-layer="layer1"
     showgrid="false"
     inkscape:window-width="1301"
     inkscape:window-height="744"
     inkscape:window-x="65"
     inkscape:window-y="24"
     inkscape:window-maximized="1" />
  <metadata
     id="metadata4271">
    <rdf:RDF>
      <cc:Work
         rdf:about="">
        <dc:format>image/svg+xml</dc:format>
        <dc:type
           rdf:resource="http://purl.org/dc/dcmitype/StillImage" />
        <dc:title />
      </cc:Work>
    </rdf:RDF>
  </metadata>
  <g
     id="layer1"
     inkscape:label="Layer 1"
     inkscape:groupmode="layer">
    <rect
       style="fill:url(#linearGradient4806);fill-opacity:1;stroke:#000000;stroke-width:4.97875071;stroke-miterlimit:4;stroke-dasharray:none;stroke-opacity:1"
       id="rect4282"
       width="1275.0212"
       height="1075.0212"
       x="2.4893754"
       y="2.4893844" />
    <rect
       style="opacity:0.722;fill:#008000;fill-opacity:1;stroke:#585858;stroke-width:0.99999994;stroke-miterlimit:4;stroke-opacity:1;stroke-dasharray:none"
       id="ErrorMessage"
       width="1175"
       height="863.97076"
       x="52.499996"
       y="171.65425"
       inkscape:label="#rect3008" />
    <g
       style="font-style:normal;font-weight:normal;font-size:91.9515686px;line-height:125%;font-family:Sans;letter-spacing:0px;word-spacing:0px;fill:#000000;fill-opacity:1;stroke:#fffdfe;stroke-width:2;stroke-miterlimit:4;stroke-dasharray:none;stroke-opacity:1"
       id="text3017">
      <path
         d="m 66.439811,54.2519 q 2.574644,0.551709 3.770015,1.563176 1.19537,0.919516 2.022934,1.471226 0.919516,0.551709 2.114886,0.367806 1.195371,-0.183903 3.861966,-1.930983 l 0,1.655128 q 2.666596,-1.839031 4.505627,-0.735612 1.839031,1.011467 3.126353,3.310256 1.287322,2.206838 2.114886,4.781482 0.827565,2.482692 1.471226,3.678062 -0.643661,0.919516 -0.643661,1.930983 0.09195,1.011468 0.183903,2.022935 0.183903,1.011467 0.183903,2.022934 0,1.011468 -0.643661,1.930983 l -2.298789,-2.390741 q -0.735613,1.839032 -1.379274,3.402208 -0.643661,1.563177 -1.839031,2.206838 -1.471225,-2.114886 -2.574644,-3.678063 -1.011467,-1.655128 -1.839032,-3.034401 -0.735612,-1.471225 -1.379273,-2.850499 -0.643661,-1.379274 -1.287322,-3.126353 -2.114886,-2.390741 -3.953918,-2.574644 -1.747079,-0.183903 -3.218304,0.183903 -1.471226,0.275855 -2.666596,0.183903 -1.103419,-0.183903 -2.022934,-2.574644 l 0,1.563177 q -1.839032,-0.919516 -3.034402,-0.55171 -1.103419,0.367807 -2.022935,1.103419 -0.919515,0.643661 -1.839031,1.195371 -0.827564,0.459757 -2.022935,-0.09195 0,-0.551709 -0.275854,-0.735613 -0.275855,-0.183903 -0.275855,-0.919515 -0.643661,1.563176 -2.482692,2.666595 -1.839032,1.103419 -3.310257,2.206838 -1.471225,1.103419 -1.655128,2.390741 -0.183903,1.287322 2.482692,3.034401 l 0.827564,-0.827564 -0.827564,3.218305 q 3.034402,1.839032 6.620513,2.94245 3.678063,1.011468 7.540029,1.74708 3.861966,0.643661 7.815883,1.011467 3.953918,0.367807 7.540029,0.643661 0,1.563177 0.459758,2.206838 0.551709,0.55171 1.287322,0.643661 0.735612,0.09195 1.563176,0 0.827564,-0.09195 1.379274,0.09195 0.643661,0.183903 0.827564,0.919515 0.275855,0.735613 -0.09195,2.482693 l 6.344659,4.781481 -2.390741,4.045869 q 2.666595,0.827564 2.94245,2.298787 0.367806,1.47123 -0.275855,3.0344 -0.643661,1.47123 -1.655128,2.6666 -1.011467,1.19537 -1.011467,1.47122 l -2.298789,2.39075 q 1.19537,0.73561 1.747079,1.83903 0.55171,1.01146 0.55171,2.8505 -0.367806,1.19537 -1.011467,1.47122 -0.643661,0.27586 -1.471226,0.092 -0.735612,-0.1839 -1.471225,-0.55171 -0.643661,-0.3678 -1.19537,-0.3678 -0.459758,-0.0919 -0.643661,0.3678 -0.09195,0.45976 0.275855,2.02294 -5.333191,1.56317 -10.114673,1.65513 -4.781481,0.0919 -9.195157,-0.73562 -4.413675,-0.91951 -8.551496,-2.57464 -4.045869,-1.74708 -7.907834,-3.77002 0,2.39075 -1.563177,3.49416 -1.563177,1.01147 -3.953918,0.55171 -1.19537,-2.39074 -1.103418,-5.14928 0.09195,-2.75855 0.551709,-5.60905 0.459758,-2.94245 0.827564,-5.8849 0.367806,-2.94245 -0.275855,-5.609046 2.206838,0.367807 3.218305,1.471225 1.103419,1.103419 1.563177,2.574644 0.551709,1.379274 0.735613,2.850497 0.183903,1.47123 0.551709,2.6666 0.459758,1.10342 1.379273,1.83903 0.919516,0.64366 2.942451,0.45976 0.919515,1.56317 3.034401,2.8505 2.206838,1.19537 4.505627,2.02293 2.390741,0.73561 4.505627,0.82756 2.206838,0.092 3.126353,-0.73561 l -0.827564,0.64366 q 2.022935,0.82757 3.953918,0.27586 1.930983,-0.55171 3.678063,-1.93099 1.747079,-1.47122 3.218304,-3.4022 1.471226,-1.93099 2.666596,-3.77002 2.94245,-2.942448 2.298789,-5.149286 -0.551709,-2.298789 -2.850498,-3.953918 -2.206838,-1.747079 -5.149288,-2.94245 -2.94245,-1.287322 -4.68953,-2.206837 l -3.126354,2.482692 q -0.643661,-2.390741 -1.930983,-2.850499 -1.19537,-0.551709 -2.666595,-0.367806 -1.379274,0.09195 -2.758547,0.275855 -1.287322,0.09195 -2.114886,-1.103419 l 0,1.563177 q -2.482693,-0.55171 -4.68953,-2.022935 -2.206838,-1.563177 -4.137821,-3.49416 -1.839031,-1.930982 -3.310256,-3.953917 -1.471225,-2.114886 -2.298789,-3.861966 -1.195371,-2.114886 -1.011468,-4.13782 0.275855,-2.114887 1.195371,-4.137821 1.011467,-2.022935 2.298789,-3.953918 1.287322,-1.930982 2.206838,-3.770014 2.114886,-2.022934 4.413675,-2.666595 2.390741,-0.643661 4.873433,-0.735613 2.482692,-0.183903 4.965385,-0.183903 2.482692,-0.09195 4.965384,-1.011467 z"
         style="font-style:normal;font-variant:normal;font-weight:normal;font-stretch:normal;font-size:91.9515686px;font-family:'My Underwood';-inkscape-font-specification:'My Underwood';stroke:#fffdfe;stroke-width:2;stroke-miterlimit:4;stroke-dasharray:none;stroke-opacity:1"
         id="path4145" />
      <path
         d="m 108.3295,56.090931 q 5.79295,0.919516 11.21809,0.919516 5.51709,-0.09195 10.94224,-0.09195 5.51709,0 10.94223,0.55171 5.5171,0.551709 11.31005,2.574644 l 1.47122,6.528561 -5.701,2.482692 q 2.20684,1.011468 2.94246,1.74708 0.82756,0.735613 0.64366,1.471225 -0.092,0.643661 -0.91952,1.379274 -0.73561,0.735612 -1.56318,1.655128 -0.82756,0.919516 -1.47122,2.114886 -0.55171,1.19537 -0.36781,2.850499 -3.0344,-0.367807 -4.50562,-1.563177 -1.47123,-1.19537 -2.11489,-2.850499 -0.55171,-1.655128 -0.45976,-3.494159 0.0919,-1.930983 0.1839,-3.678063 0.092,-1.839031 -0.0919,-3.218305 -0.0919,-1.471225 -1.01146,-2.114886 -0.91952,-0.643661 -3.03441,-0.367806 -2.02293,0.275854 -5.79294,1.930983 -0.91952,-2.022935 -2.02294,-1.930983 -1.01147,0 -2.11489,0.827564 -1.01146,0.735612 -2.02293,1.379273 -1.01147,0.643661 -1.93098,-0.275854 0,2.022934 -1.01147,2.94245 -0.91952,0.827564 -2.20684,1.103419 -1.19537,0.183903 -2.48269,0.183903 -1.19537,-0.09195 -1.74708,0.09195 -0.45976,0.09195 0,0.735613 0.55171,0.643661 2.75855,2.298789 l 2.29879,0 q -0.18391,1.195371 -0.82757,1.563177 -0.64366,0.275855 -1.47122,0.367806 -0.82757,0 -1.65513,-0.09195 -0.82756,-0.09195 -1.47123,0.275854 -0.55171,0.275855 -0.73561,1.195371 -0.0919,0.919515 0.55171,2.94245 l 9.74687,4.873433 q -1.01147,-1.379274 -0.91952,-2.390741 0.0919,-1.103419 0.73561,-1.930983 0.64366,-0.919515 1.47123,-1.655128 0.91951,-0.735613 1.37927,-1.471225 0.55171,-0.735613 0.36781,-1.563177 -0.1839,-0.919515 -1.56318,-2.114886 l 4.04587,-3.218305 5.60905,7.815884 -0.64366,0 q 0.55171,1.839031 0.27585,3.861966 -0.27585,2.022934 -0.64366,4.045869 -0.27586,1.930982 -0.27586,3.678062 0.092,1.74708 1.28733,2.94245 l -1.56318,0 q -0.91952,1.471226 -0.64366,2.758548 0.36781,1.19537 0.73561,2.39074 0.36781,1.103419 0.1839,2.206838 -0.0919,1.103419 -1.83903,2.298791 -1.19537,-0.82757 -2.02293,-2.298791 -0.73561,-1.471225 -1.47123,-3.126353 -0.64366,-1.655129 -1.37927,-3.218305 -0.73561,-1.563177 -1.93098,-2.574644 -1.19537,-1.011467 -3.0344,-1.103419 -1.83904,-0.183903 -4.59758,1.011467 0,1.563177 -0.73562,2.482693 -0.73561,0.827564 -1.56317,1.655128 -0.73561,0.827564 -1.19537,1.930983 -0.36781,1.011467 0.1839,2.758547 0.64366,0.919516 1.65513,1.103419 1.10342,0.183903 2.02293,0.459755 1.01147,0.27586 1.56318,0.91952 0.64366,0.64366 0.36781,2.57464 -0.82757,0.55171 -1.47123,0.18391 -0.64366,-0.45976 -1.19537,-0.82757 -0.45976,-0.45976 -1.01147,-0.45976 -0.45975,-0.0919 -1.10341,1.10342 0,0.55171 0,1.28732 0.0919,0.64367 0.27585,1.19537 0.27585,0.55171 0.73561,1.01147 0.55171,0.36781 1.47123,0.36781 l 1.56317,0 -4.87343,1.56317 6.43661,5.701 q 1.47123,-2.11488 2.8505,-2.02293 1.37927,0 2.75855,0.82756 1.37927,0.73561 2.75854,1.47123 1.37928,0.64366 2.94245,-0.27586 3.31026,1.37928 5.24124,1.19537 1.93099,-0.27585 2.94245,-1.47122 1.01147,-1.28732 1.37928,-3.21831 0.45975,-1.93098 0.73561,-3.95392 0.27585,-2.02293 0.64366,-3.86196 0.36781,-1.83903 1.28732,-2.94245 1.01147,-1.10342 2.8505,-1.10342 1.83903,0 5.05734,1.65513 -1.28732,1.28732 -2.39074,1.74708 -1.10342,0.3678 -1.83904,1.47122 l 4.22978,4.78148 q -1.28732,0.64367 -2.39074,0.82757 -1.10342,0.1839 -1.83904,0.73561 l 4.87344,4.96539 q -6.34466,3.0344 -13.14908,4.04587 -6.80441,0.91951 -13.70078,0.82756 -6.89637,-0.0919 -13.70078,-0.73561 -6.80442,-0.73562 -13.149078,-1.01147 l -0.827564,0 q 0,-1.83903 0.827564,-2.75855 0.919518,-0.91951 2.206838,-1.37927 1.37927,-0.55171 2.8505,-0.82757 1.47122,-0.27585 2.66659,-0.82756 1.28733,-0.55171 2.02294,-1.56318 0.73561,-1.01146 0.55171,-3.0344 -0.27586,-5.42514 0,-11.034186 0.27585,-5.700997 0.1839,-11.218092 -0.0919,-5.517094 -0.91951,-10.666381 -0.82757,-5.149288 -3.21831,-9.746867 -1.47122,0.367807 -2.94245,0 -1.47122,-0.367806 -2.8505,-1.011467 -1.379272,-0.735613 -2.574642,-1.471225 -1.195371,-0.827564 -2.114887,-1.379274 0.367807,-2.758547 1.563177,-3.586111 1.287322,-0.919515 3.034402,-1.011467 1.83903,-0.183903 3.95392,-0.183903 2.11488,0 4.22977,-0.919516 z"
         style="font-style:normal;font-variant:normal;font-weight:normal;font-stretch:normal;font-size:91.9515686px;font-family:'My Underwood';-inkscape-font-specification:'My Underwood';stroke:#fffdfe;stroke-width:2;stroke-miterlimit:4;stroke-dasharray:none;stroke-opacity:1"
         id="path4147" />
      <path
         d="m 158.1342,62.619492 q 4.50563,-0.551709 8.45955,-1.19537 4.04586,-0.735612 7.99978,-1.19537 4.04587,-0.55171 8.27564,-0.827564 4.32173,-0.275855 9.37906,0 -0.45975,2.39074 -1.37927,4.505626 -0.91952,2.114887 -3.31026,2.758548 -1.47122,-1.195371 -2.75854,-1.287322 -1.19537,-0.183904 -2.29879,0.183903 -1.10342,0.367806 -2.20684,1.011467 -1.10342,0.551709 -2.29879,0.827564 0.36781,1.19537 0,2.298789 -0.27585,1.103419 -0.91952,2.206838 -0.55171,1.011467 -1.19537,1.930983 -0.55171,0.919516 -0.73561,1.839031 -0.0919,0.827564 0.45976,1.563177 0.64366,0.735612 2.39074,1.287322 -0.55171,1.19537 -1.37927,2.390741 -0.73562,1.103418 -0.18391,2.298789 l 1.56318,2.390741 -3.12635,2.39074 q 1.19537,3.586112 1.65512,7.356126 0.55171,3.678063 1.19538,6.988319 0.64366,3.21831 1.93098,5.79295 1.28732,2.48269 3.95392,3.67806 2.39074,-0.27585 4.22977,-0.55171 1.83903,-0.3678 3.58611,-0.64366 1.74708,-0.27585 3.40221,-0.45976 1.74708,-0.27585 3.86196,-0.55171 0.82757,-0.82756 1.19537,-2.20683 0.45976,-1.47123 0.82757,-3.03441 0.3678,-1.65512 0.82756,-3.2183 0.55171,-1.563177 1.47123,-2.574644 1.01146,-1.103419 2.57464,-1.379274 1.56318,-0.367806 4.13782,0.367807 1.19537,1.19537 2.11489,2.482691 0.91951,1.19537 1.83903,2.29879 1.01147,1.01147 2.29879,1.65513 1.28732,0.64366 3.31025,0.64366 -0.27585,2.66659 -0.82756,5.97685 -0.45976,3.31026 -1.74708,6.25271 -1.19537,2.8505 -3.58611,4.78148 -2.39074,2.02293 -6.52856,2.02293 -6.25271,-0.27585 -11.86175,-0.82756 -5.60905,-0.45976 -11.2181,-1.01147 -5.60904,-0.55171 -11.40199,-0.91951 -5.701,-0.36781 -12.22956,-0.36781 -0.64366,-2.02293 -0.45976,-2.94245 0.27586,-1.01147 1.01147,-1.37927 0.82756,-0.36781 1.93098,-0.36781 1.19537,0 2.39074,0 1.28733,-0.0919 2.4827,-0.36781 1.19537,-0.27585 1.93098,-1.28732 0.91952,-5.33319 1.56318,-11.49394 0.73561,-6.25271 0.82756,-12.68932 0.0919,-6.43661 -0.64366,-12.597365 -0.64366,-6.252707 -2.39074,-11.585898 l -10.39053,-3.218305 0,0 z"
         style="font-style:normal;font-variant:normal;font-weight:normal;font-stretch:normal;font-size:91.9515686px;font-family:'My Underwood';-inkscape-font-specification:'My Underwood';stroke:#fffdfe;stroke-width:2;stroke-miterlimit:4;stroke-dasharray:none;stroke-opacity:1"
         id="path4149" />
      <path
         d="m 278.57208,60.596558 q -0.27585,1.287322 -0.73561,3.402208 -0.36781,2.022935 -0.64366,4.413675 -0.27586,2.390741 -0.36781,4.781482 -0.0919,2.390741 0.27586,4.13782 l -7.17223,1.563177 q -0.64366,-1.74708 -0.73561,-3.770014 0,-2.022935 -0.27585,-3.861966 -0.27586,-1.930983 -1.28733,-3.49416 -0.91951,-1.563176 -3.31025,-2.482692 0.73561,0.643661 0.64366,1.471225 -0.0919,0.827564 -0.64366,1.74708 -0.45976,0.919516 -1.10342,1.839031 -0.64366,0.919516 -0.82757,1.74708 -0.0919,0.735613 0.36781,1.287322 0.55171,0.551709 2.39074,0.735613 -1.37927,1.379273 -1.83903,3.034401 -0.36781,1.655129 -0.27585,3.402208 0.0919,1.74708 0.3678,3.586112 0.36781,1.839031 0.36781,3.678062 0,1.839032 -0.55171,3.678063 -0.55171,1.74708 -2.11489,3.310257 l 2.39074,3.861965 q -0.55171,0.643661 -1.56317,1.379273 -0.91952,0.64366 -2.02294,0.91952 -1.10342,0.27585 -2.29879,0.0919 -1.10342,-0.27586 -2.02293,-1.563178 0.27585,-1.471226 0.1839,-3.218305 0,-1.839032 -0.64366,-3.310257 -0.55171,-1.471225 -1.83903,-2.298789 -1.19537,-0.919516 -3.21831,-0.643661 -2.75854,-1.19537 -4.04587,-1.011467 -1.28732,0.09195 -1.74707,1.011467 -0.36781,0.919516 -0.27586,2.482692 0.1839,1.563177 0.1839,3.218305 0.092,1.655128 -0.27585,3.126354 -0.36781,1.471229 -1.74708,2.206839 -0.64366,3.0344 0.36781,4.87343 1.10341,1.83903 3.0344,3.0344 1.93098,1.19537 4.22977,2.02294 2.29879,0.82756 4.22977,1.83903 2.02294,0.91951 3.12635,2.20684 1.19538,1.28732 0.82757,3.49416 -4.50563,0.27585 -8.7354,0.64366 -4.13782,0.3678 -8.27564,0.45976 -4.04587,0 -8.18369,-0.36781 -4.04587,-0.36781 -8.18369,-1.47123 0.1839,-1.83903 0.91952,-2.66659 0.82756,-0.91952 1.83903,-1.28732 1.10342,-0.36781 2.29879,-0.45976 1.28732,-0.1839 2.57464,-0.55171 1.28732,-0.36781 2.39074,-1.19537 1.10342,-0.91952 1.93098,-2.6666 -0.82756,-3.49416 -0.64366,-7.44807 0.27586,-3.953921 0.82757,-7.99979 0.55171,-4.137821 1.01146,-8.18369 0.45976,-4.045869 0.18391,-7.815883 -0.18391,-3.770015 -1.56318,-7.080271 -1.37927,-3.310257 -4.50563,-5.884901 l -7.26417,-2.298789 0.82756,-3.953917 q 6.89637,0.551709 13.70079,0.09195 6.80441,-0.459758 13.51688,-0.735612 6.71246,-0.275855 13.14907,0.183903 6.52856,0.367806 12.78127,2.758547 z m -15.81567,6.43661 q -1.37927,0.367806 -3.12635,0.09195 -1.65513,-0.275854 -3.40221,-0.735612 -1.74708,-0.459758 -3.49416,-0.827564 -1.74708,-0.367807 -3.31026,-0.09195 -1.56317,0.183903 -2.8505,1.287322 -1.28732,1.011467 -2.11488,3.402208 0.82756,1.011467 0.91951,2.298789 0.092,1.195371 0,2.574644 -0.0919,1.287322 -0.1839,2.482693 -0.0919,1.19537 0.27586,2.114886 0.3678,0.919515 1.37927,1.379273 1.01147,0.459758 3.2183,0.275855 l 3.12636,-3.953918 -2.39074,-1.655128 5.60904,-6.252706 q 1.83903,0 3.40221,-0.183904 1.65513,-0.275854 2.94245,0.919516 l 0,-3.126353 z"
         style="font-style:normal;font-variant:normal;font-weight:normal;font-stretch:normal;font-size:91.9515686px;font-family:'My Underwood';-inkscape-font-specification:'My Underwood';stroke:#fffdfe;stroke-width:2;stroke-miterlimit:4;stroke-dasharray:none;stroke-opacity:1"
         id="path4151" />
      <path
         d="m 284.96991,59.860945 q 5.24124,0 10.66638,-0.735612 5.42514,-0.735613 10.75833,-0.735613 5.33319,-0.09195 10.29858,1.103419 5.05733,1.195371 9.47101,5.057336 -0.1839,1.195371 -1.93098,1.563177 -1.74708,0.275855 -4.04587,0.275855 -2.20684,-0.09195 -4.50563,-0.09195 -2.29879,-0.09195 -3.67806,0.367807 -1.28732,0.459757 -1.19537,1.839031 0.092,1.287322 2.66659,4.045869 -2.39074,-1.19537 -3.49416,-1.19537 -1.01146,0 -1.37927,0.827564 -0.27586,0.735612 -0.1839,2.022934 0.1839,1.287322 0.27585,2.666596 0.092,1.379273 -0.1839,2.666595 -0.18391,1.195371 -1.37928,1.74708 1.37928,0.551709 1.47123,1.379273 0.1839,0.735613 -0.1839,1.563177 -0.36781,0.735613 -1.01147,1.563177 -0.64366,0.827564 -0.91952,1.563176 -0.1839,0.643661 0.36781,1.195371 0.55171,0.459758 2.57464,0.643661 -0.82756,2.114886 -0.91951,4.229772 -0.0919,2.114886 0.3678,4.229772 0.45976,2.022935 1.19537,4.13782 0.82757,2.02294 1.74708,4.04587 -2.39074,0 -2.39074,2.39074 1.01147,2.75855 2.94245,3.95392 2.02294,1.19537 4.22978,1.65513 2.20683,0.45975 4.13782,0.64366 2.02293,0.0919 3.0344,0.82756 1.01147,0.64366 0.55171,2.29879 -0.36781,1.56318 -2.94245,4.96539 l -34.9416,0 -2.29879,-3.31026 q 1.19537,-1.47123 2.48269,-2.8505 1.37928,-1.37927 3.03441,-2.29879 1.74708,-1.01147 3.86196,-1.37927 2.11489,-0.36781 4.78148,0.27585 0.91952,-4.13782 1.19537,-8.9193 0.36781,-4.781482 0.27586,-9.746866 0,-5.057337 -0.45976,-10.022721 -0.36781,-4.965385 -1.01147,-9.37906 1.83903,-0.919516 1.83903,-1.74708 0,-0.919516 -0.64366,-1.839031 -0.64366,-1.011468 -1.47122,-2.022935 -0.73561,-1.103419 -0.45976,-2.298789 l -12.59736,-1.74708 0,-5.425143 0,0 z"
         style="font-style:normal;font-variant:normal;font-weight:normal;font-stretch:normal;font-size:91.9515686px;font-family:'My Underwood';-inkscape-font-specification:'My Underwood';stroke:#fffdfe;stroke-width:2;stroke-miterlimit:4;stroke-dasharray:none;stroke-opacity:1"
         id="path4153" />
      <path
         d="m 343.77581,56.090931 q 5.79295,0.919516 11.21809,0.919516 5.51709,-0.09195 10.94224,-0.09195 5.51709,0 10.94223,0.55171 5.5171,0.551709 11.31005,2.574644 l 1.47122,6.528561 -5.701,2.482692 q 2.20684,1.011468 2.94245,1.74708 0.82757,0.735613 0.64366,1.471225 -0.0919,0.643661 -0.91951,1.379274 -0.73561,0.735612 -1.56318,1.655128 -0.82756,0.919516 -1.47122,2.114886 -0.55171,1.19537 -0.36781,2.850499 -3.0344,-0.367807 -4.50563,-1.563177 -1.47122,-1.19537 -2.11488,-2.850499 -0.55171,-1.655128 -0.45976,-3.494159 0.0919,-1.930983 0.1839,-3.678063 0.0919,-1.839031 -0.0919,-3.218305 -0.0919,-1.471225 -1.01147,-2.114886 -0.91951,-0.643661 -3.0344,-0.367806 -2.02293,0.275854 -5.79295,1.930983 -0.91951,-2.022935 -2.02293,-1.930983 -1.01147,0 -2.11489,0.827564 -1.01146,0.735612 -2.02293,1.379273 -1.01147,0.643661 -1.93098,-0.275854 0,2.022934 -1.01147,2.94245 -0.91952,0.827564 -2.20684,1.103419 -1.19537,0.183903 -2.48269,0.183903 -1.19537,-0.09195 -1.74708,0.09195 -0.45976,0.09195 0,0.735613 0.55171,0.643661 2.75855,2.298789 l 2.29878,0 q -0.1839,1.195371 -0.82756,1.563177 -0.64366,0.275855 -1.47122,0.367806 -0.82757,0 -1.65513,-0.09195 -0.82757,-0.09195 -1.47123,0.275854 -0.55171,0.275855 -0.73561,1.195371 -0.0919,0.919515 0.55171,2.94245 l 9.74687,4.873433 q -1.01147,-1.379274 -0.91952,-2.390741 0.092,-1.103419 0.73561,-1.930983 0.64366,-0.919515 1.47123,-1.655128 0.91951,-0.735613 1.37927,-1.471225 0.55171,-0.735613 0.36781,-1.563177 -0.18391,-0.919515 -1.56318,-2.114886 l 4.04587,-3.218305 5.60905,7.815884 -0.64367,0 q 0.55171,1.839031 0.27586,3.861966 -0.27586,2.022934 -0.64366,4.045869 -0.27586,1.930982 -0.27586,3.678062 0.092,1.74708 1.28733,2.94245 l -1.56318,0 q -0.91952,1.471226 -0.64366,2.758548 0.3678,1.19537 0.73561,2.39074 0.36781,1.103419 0.1839,2.206838 -0.0919,1.103419 -1.83903,2.298791 -1.19537,-0.82757 -2.02293,-2.298791 -0.73562,-1.471225 -1.47123,-3.126353 -0.64366,-1.655129 -1.37927,-3.218305 -0.73561,-1.563177 -1.93098,-2.574644 -1.19537,-1.011467 -3.03441,-1.103419 -1.83903,-0.183903 -4.59757,1.011467 0,1.563177 -0.73562,2.482693 -0.73561,0.827564 -1.56317,1.655128 -0.73562,0.827564 -1.19537,1.930983 -0.36781,1.011467 0.1839,2.758547 0.64366,0.919516 1.65513,1.103419 1.10342,0.183903 2.02293,0.459755 1.01147,0.27586 1.56318,0.91952 0.64366,0.64366 0.3678,2.57464 -0.82756,0.55171 -1.47122,0.18391 -0.64366,-0.45976 -1.19537,-0.82757 -0.45976,-0.45976 -1.01147,-0.45976 -0.45976,-0.0919 -1.10342,1.10342 0,0.55171 0,1.28732 0.0919,0.64367 0.27586,1.19537 0.27585,0.55171 0.73561,1.01147 0.55171,0.36781 1.47123,0.36781 l 1.56317,0 -4.87343,1.56317 6.43661,5.701 q 1.47122,-2.11488 2.8505,-2.02293 1.37927,0 2.75854,0.82756 1.37928,0.73561 2.75855,1.47123 1.37928,0.64366 2.94245,-0.27586 3.31026,1.37928 5.24124,1.19537 1.93098,-0.27585 2.94245,-1.47122 1.01147,-1.28732 1.37927,-3.21831 0.45976,-1.93098 0.73562,-3.95392 0.27585,-2.02293 0.64366,-3.86196 0.3678,-1.83903 1.28732,-2.94245 1.01147,-1.10342 2.8505,-1.10342 1.83903,0 5.05734,1.65513 -1.28733,1.28732 -2.39075,1.74708 -1.10341,0.3678 -1.83903,1.47122 l 4.22978,4.78148 q -1.28733,0.64367 -2.39075,0.82757 -1.10341,0.1839 -1.83903,0.73561 l 4.87344,4.96539 q -6.34466,3.0344 -13.14908,4.04587 -6.80441,0.91951 -13.70078,0.82756 -6.89637,-0.0919 -13.70079,-0.73561 -6.80441,-0.73562 -13.14907,-1.01147 l -0.82756,0 q 0,-1.83903 0.82756,-2.75855 0.91952,-0.91951 2.20684,-1.37927 1.37927,-0.55171 2.8505,-0.82757 1.47122,-0.27585 2.66659,-0.82756 1.28732,-0.55171 2.02294,-1.56318 0.73561,-1.01146 0.55171,-3.0344 -0.27586,-5.42514 0,-11.034186 0.27585,-5.700997 0.1839,-11.218092 -0.0919,-5.517094 -0.91952,-10.666381 -0.82756,-5.149288 -3.2183,-9.746867 -1.47123,0.367807 -2.94245,0 -1.47123,-0.367806 -2.8505,-1.011467 -1.37927,-0.735613 -2.57464,-1.471225 -1.19537,-0.827564 -2.11489,-1.379274 0.36781,-2.758547 1.56318,-3.586111 1.28732,-0.919515 3.0344,-1.011467 1.83903,-0.183903 3.95392,-0.183903 2.11488,0 4.22977,-0.919516 z"
         style="font-style:normal;font-variant:normal;font-weight:normal;font-stretch:normal;font-size:91.9515686px;font-family:'My Underwood';-inkscape-font-specification:'My Underwood';stroke:#fffdfe;stroke-width:2;stroke-miterlimit:4;stroke-dasharray:none;stroke-opacity:1"
         id="path4155" />
      <path
         d="m 441.11947,58.021914 q 1.74708,0.643661 3.0344,2.574644 1.37927,1.839031 3.12635,3.034402 -1.10342,1.839031 -1.47122,3.494159 -0.27586,1.655129 1.47122,2.942451 -1.47122,0.827564 -1.65513,2.666595 -0.1839,1.74708 -0.0919,4.045869 0.1839,2.206838 0.1839,4.597578 0.092,2.390741 -0.73561,4.505627 -1.47122,0.643661 -3.12635,0.183903 -1.56318,-0.551709 -2.8505,-1.563176 -1.28732,-1.011467 -1.93098,-2.390741 -0.64366,-1.379273 -0.0919,-2.574644 -0.55171,-1.74708 -0.18391,-4.045869 0.36781,-2.390741 0.45976,-4.597578 0.0919,-2.29879 -0.64366,-4.045869 -0.73561,-1.74708 -3.49416,-2.29879 -3.58611,-1.287322 -5.79295,0 -2.20684,1.287322 -3.31026,3.861966 -1.10341,2.482693 -1.37927,5.609046 -0.1839,3.126353 0.0919,5.517094 1.19537,2.758547 1.19537,6.712465 0.092,3.861966 -0.1839,7.999786 -0.27585,4.137821 -0.36781,8.183688 0,3.95392 1.19537,6.98832 1.19537,3.0344 4.04587,4.68953 2.8505,1.65513 8.3676,1.10342 1.37927,1.93098 1.47122,3.0344 0.0919,1.10342 -0.73561,1.65513 -0.73561,0.45976 -2.11489,0.64366 -1.28732,0.1839 -2.75854,0.27586 -1.37928,0.092 -2.6666,0.3678 -1.28732,0.36781 -1.83903,1.10342 -2.02294,-1.19537 -4.59758,-1.19537 -2.48269,0 -5.14929,0.36781 -2.57464,0.45975 -5.24124,0.82756 -2.57464,0.45976 -4.68953,0 -2.02293,-0.36781 -3.40221,-1.93098 -1.37927,-1.56318 -1.56317,-5.14929 l 11.9537,-4.59758 q 0.64366,-5.33319 0.73561,-10.57443 0.092,-5.33319 0,-10.666381 -0.092,-5.425143 -0.1839,-10.942237 0,-5.609045 0.36781,-11.585897 -2.11489,-1.471225 -3.95392,-1.74708 -1.83903,-0.367806 -3.58611,0 -1.65513,0.367806 -3.40221,1.19537 -1.65513,0.735613 -3.40221,1.379274 0.91952,0.919515 0.91952,1.563176 0.0919,0.643661 -0.36781,1.195371 -0.45976,0.551709 -1.28732,1.19537 -0.82756,0.643661 -1.74708,1.471225 2.39074,1.839032 2.8505,3.126354 0.45976,1.287322 -0.0919,2.482692 -0.55171,1.19537 -1.47123,2.482692 -0.91951,1.287322 -1.28732,3.034402 l -2.39074,3.310257 q -1.83903,-3.310257 -2.57464,-6.528562 -0.64367,-3.218305 -0.73562,-6.528561 0,-3.310257 0.36781,-6.896368 0.36781,-3.678063 0.64366,-7.815883 6.16076,-1.195371 11.86175,-1.287322 5.79295,-0.09195 11.31005,0.183903 5.60904,0.183903 11.21809,0.275855 5.70099,0 11.67785,-0.919516 z"
         style="font-style:normal;font-variant:normal;font-weight:normal;font-stretch:normal;font-size:91.9515686px;font-family:'My Underwood';-inkscape-font-specification:'My Underwood';stroke:#fffdfe;stroke-width:2;stroke-miterlimit:4;stroke-dasharray:none;stroke-opacity:1"
         id="path4157" />
      <path
         d="m 492.50747,66.665362 q 0,2.94245 0.64366,5.792948 0.73561,2.850499 1.47122,5.700998 0.73562,2.758547 1.10342,5.609045 0.45976,2.850499 -0.0919,5.884901 1.19537,1.839031 1.47123,3.586111 0.3678,1.74708 0.27585,3.678063 -0.0919,1.839031 -0.27585,3.770012 -0.18391,1.93098 0.0919,3.95392 -0.55171,-0.27586 -1.01147,-0.1839 -0.45976,0.0919 -0.91951,0.45975 -0.45976,0.27586 -0.91952,0.73562 -0.45976,0.3678 -1.01147,0.64366 1.56318,1.01146 1.93099,1.74708 0.3678,0.73561 -0.092,1.37927 -0.3678,0.64366 -1.19537,1.28732 -0.73561,0.64366 -1.47122,1.37928 -0.73561,0.64366 -1.10342,1.56317 -0.27586,0.82757 0.27585,2.02294 -2.39074,1.83903 -5.33319,3.40221 -2.94245,1.56317 -6.16075,2.39074 -3.12636,0.91951 -6.43661,0.91951 -3.31026,0.092 -6.62051,-1.10342 -2.94246,-0.82756 -5.05734,-2.39074 -2.02294,-1.65513 -3.58611,-3.67806 -1.56318,-2.11489 -2.8505,-4.59758 -1.28732,-2.48269 -2.75855,-5.14929 -0.3678,-4.13782 -0.82756,-8.551492 -0.45976,-4.413676 -0.55171,-8.827351 0,-4.505627 0.55171,-8.919302 0.55171,-4.505627 2.29879,-8.735399 2.11488,-1.74708 4.22977,-4.045869 2.20684,-2.298789 4.50563,-4.229772 2.29879,-2.022935 4.87343,-3.310257 2.57464,-1.287322 5.51709,-1.011467 2.39074,1.839031 4.96539,2.482692 2.66659,0.643661 5.14929,1.287322 2.57464,0.55171 4.87343,1.563177 2.29879,1.011467 4.04587,3.49416 z m -13.42493,0.735612 q -3.86197,-1.19537 -6.43661,-0.09195 -2.57464,1.011468 -4.50563,3.218305 -1.83903,2.114886 -3.40221,4.873434 -1.47122,2.666595 -3.2183,4.68953 -2.11489,2.94245 -2.20684,6.804416 0,3.861965 1.10342,7.907835 1.19537,3.953917 3.0344,7.907838 1.83903,3.86196 3.67807,6.89636 1.74707,1.37928 4.22977,2.20684 2.48269,0.82757 4.87343,0.91952 2.39074,0.092 4.22977,-0.64366 1.93099,-0.73562 2.57465,-2.4827 -0.27586,-1.19537 0.27585,-2.11488 0.64366,-1.01147 1.47123,-1.74708 0.91951,-0.82757 1.83903,-1.47123 0.91951,-0.73561 1.28732,-1.47122 0.45976,-0.73561 0.0919,-1.56318 -0.27585,-0.91951 -1.83903,-2.114885 0.55171,-0.551709 1.19537,-1.379273 0.64366,-0.919516 1.28732,-0.919516 l 0,-14.344445 q -1.28732,-1.471225 -2.29879,-3.770014 -0.91951,-2.298789 -2.02293,-4.597578 -1.01147,-2.29879 -2.29879,-4.137821 -1.19537,-1.930983 -2.94245,-2.574644 z"
         style="font-style:normal;font-variant:normal;font-weight:normal;font-stretch:normal;font-size:91.9515686px;font-family:'My Underwood';-inkscape-font-specification:'My Underwood';stroke:#fffdfe;stroke-width:2;stroke-miterlimit:4;stroke-dasharray:none;stroke-opacity:1"
         id="path4159" />
      <path
         d="m 555.67531,74.849051 q 0,3.49416 -1.83903,6.712465 -1.74708,3.126353 -3.77001,6.160755 -1.93099,3.034401 -3.21831,6.068803 -1.19537,3.034402 -0.0919,6.344656 l -0.73561,0 q -1.01147,2.20684 -0.64366,4.04587 0.3678,1.74708 1.47122,3.31026 1.10342,1.47122 2.6666,2.94245 1.65513,1.37927 3.2183,2.8505 1.56318,1.47122 2.75855,3.12635 1.28732,1.56318 1.65513,3.58611 -1.47123,2.6666 -3.12636,2.94245 -1.56317,0.36781 -3.31025,-0.1839 -1.65513,-0.55171 -3.40221,-1.37928 -1.74708,-0.82756 -3.49416,-0.45975 -2.02293,-2.02294 -3.12635,-5.14929 -1.01147,-3.21831 -1.83903,-6.62051 -0.73562,-3.49416 -1.65513,-6.71247 -0.91952,-3.218303 -2.6666,-5.333189 -1.65513,-2.206838 -4.59758,-2.850499 -2.8505,-0.643661 -7.63198,1.19537 -2.75854,0.183904 -3.77001,0.919516 -0.91952,0.643661 -0.82757,1.655128 0.092,0.919516 0.73562,2.114884 0.64366,1.19537 1.01146,2.48269 0.45976,1.28733 0.18391,2.4827 -0.27586,1.19537 -2.11489,2.20683 l 2.29879,3.31026 -1.47122,1.37927 q 1.74708,2.02294 3.12635,2.57465 1.47122,0.45976 2.66659,0.82756 1.28733,0.27586 2.4827,1.10342 1.19537,0.82757 2.66659,3.49416 -1.65513,0.36781 -3.31025,1.37927 -1.56318,1.10342 -3.12636,1.74708 -1.47122,0.64367 -2.8505,0.36781 -1.28732,-0.27585 -2.48269,-2.57464 l -7.08027,0.64366 0,0.73561 q 0,-0.55171 -0.73561,-0.64366 -0.73561,0 -1.83903,0.0919 -1.10342,0.1839 -2.29879,0.27586 -1.19537,0.0919 -2.11489,-0.27586 -0.82756,-0.36781 -1.19537,-1.28732 -0.3678,-1.01147 0.27586,-3.0344 l 9.47101,-5.42515 -1.56318,-43.585039 q -1.37927,1.195371 -2.11489,1.195371 -0.73561,0 -1.10341,-0.643661 -0.27586,-0.643661 -0.55171,-1.563177 -0.18391,-0.919516 -0.64366,-1.655128 -0.36781,-0.735613 -1.19537,-1.011467 -0.73562,-0.275855 -2.29879,0.551709 1.19537,-3.861966 4.04587,-5.149288 2.85049,-1.379273 6.4366,-1.471225 3.67807,-0.09195 7.63199,0.551709 3.95391,0.55171 7.26417,0.55171 4.68953,-0.367806 8.82735,0.275855 4.13782,0.643661 7.63198,2.482692 3.58611,1.74708 6.34466,4.781481 2.8505,3.034402 4.96538,7.540029 z m -33.37842,-7.999786 q -0.27585,0.919515 -1.47122,2.206837 -1.19537,1.195371 -1.93098,2.390741 -0.73562,1.103419 -0.45976,2.114886 0.3678,0.919516 3.0344,1.287322 l -3.12635,3.034402 q 1.74708,1.287322 2.11488,3.218305 0.36781,1.930983 -1.47122,3.126353 1.19537,2.022935 2.39074,2.666596 1.28732,0.551709 2.48269,0.459757 1.19537,-0.183903 2.39074,-0.735612 1.28732,-0.55171 2.57464,-0.919516 1.28733,-0.459758 2.57465,-0.367806 1.37927,0.09195 2.75855,1.287322 2.39074,0 3.4022,-0.459758 1.10342,-0.459758 1.37928,-1.19537 0.3678,-0.735613 0.27585,-1.563177 -0.0919,-0.919516 0.092,-1.655128 0.18391,-0.827564 0.91952,-1.379274 0.73561,-0.643661 2.75855,-0.827564 -0.36781,-1.471225 -0.27586,-2.574644 0.1839,-1.19537 0.27586,-2.206837 0.1839,-1.011468 0.0919,-2.114887 -0.0919,-1.103418 -1.01147,-2.574643 -2.11489,-1.471226 -4.68953,-2.206838 -2.57464,-0.735613 -5.24124,-0.919516 -2.57464,-0.183903 -5.14929,-0.09195 -2.57464,0 -4.68953,0 z"
         style="font-style:normal;font-variant:normal;font-weight:normal;font-stretch:normal;font-size:91.9515686px;font-family:'My Underwood';-inkscape-font-specification:'My Underwood';stroke:#fffdfe;stroke-width:2;stroke-miterlimit:4;stroke-dasharray:none;stroke-opacity:1"
         id="path4161" />
      <path
         d="m 563.6981,59.860945 q 5.24124,0 10.66638,-0.735612 5.42515,-0.735613 10.75834,-0.735613 5.33319,-0.09195 10.29857,1.103419 5.05734,1.195371 9.47101,5.057336 -0.1839,1.195371 -1.93098,1.563177 -1.74708,0.275855 -4.04587,0.275855 -2.20684,-0.09195 -4.50562,-0.09195 -2.29879,-0.09195 -3.67807,0.367807 -1.28732,0.459757 -1.19537,1.839031 0.0919,1.287322 2.6666,4.045869 -2.39074,-1.19537 -3.49416,-1.19537 -1.01147,0 -1.37928,0.827564 -0.27585,0.735612 -0.1839,2.022934 0.1839,1.287322 0.27586,2.666596 0.0919,1.379273 -0.18391,2.666595 -0.1839,1.195371 -1.37927,1.74708 1.37927,0.551709 1.47122,1.379273 0.18391,0.735613 -0.1839,1.563177 -0.3678,0.735613 -1.01147,1.563177 -0.64366,0.827564 -0.91951,1.563176 -0.1839,0.643661 0.3678,1.195371 0.55171,0.459758 2.57465,0.643661 -0.82757,2.114886 -0.91952,4.229772 -0.0919,2.114886 0.36781,4.229772 0.45976,2.022935 1.19537,4.13782 0.82756,2.02294 1.74708,4.04587 -2.39074,0 -2.39074,2.39074 1.01147,2.75855 2.94245,3.95392 2.02293,1.19537 4.22977,1.65513 2.20684,0.45975 4.13782,0.64366 2.02294,0.0919 3.0344,0.82756 1.01147,0.64366 0.55171,2.29879 -0.3678,1.56318 -2.94245,4.96539 l -34.94159,0 -2.29879,-3.31026 q 1.19537,-1.47123 2.48269,-2.8505 1.37927,-1.37927 3.0344,-2.29879 1.74708,-1.01147 3.86197,-1.37927 2.11488,-0.36781 4.78148,0.27585 0.91951,-4.13782 1.19537,-8.9193 0.36781,-4.781482 0.27585,-9.746866 0,-5.057337 -0.45975,-10.022721 -0.36781,-4.965385 -1.01147,-9.37906 1.83903,-0.919516 1.83903,-1.74708 0,-0.919516 -0.64366,-1.839031 -0.64366,-1.011468 -1.47123,-2.022935 -0.73561,-1.103419 -0.45975,-2.298789 l -12.59737,-1.74708 0,-5.425143 0,0 z"
         style="font-style:normal;font-variant:normal;font-weight:normal;font-stretch:normal;font-size:91.9515686px;font-family:'My Underwood';-inkscape-font-specification:'My Underwood';stroke:#fffdfe;stroke-width:2;stroke-miterlimit:4;stroke-dasharray:none;stroke-opacity:1"
         id="path4163" />
      <path
         d="m 619.19376,59.217284 q 2.39074,0 4.96539,0 2.57464,-0.09195 5.05733,0.275855 2.57465,0.367806 4.87344,1.379274 2.29878,1.011467 4.13782,3.034401 -2.39074,1.195371 -4.59758,2.758548 -2.20684,1.563176 -3.67806,3.678062 -1.47123,2.022935 -1.93099,4.781482 -0.45976,2.758547 0.73561,6.344658 1.19538,1.74708 0.82757,4.045869 -0.36781,2.206838 -0.82757,4.597579 -0.45975,2.39074 -0.27585,4.68953 0.27585,2.298789 2.6666,4.045869 -2.39075,1.471229 -2.57465,3.034399 -0.1839,1.47123 0.55171,3.0344 0.82757,1.56318 1.83903,3.21831 1.01147,1.65513 1.01147,3.40221 1.74708,1.83903 3.67806,2.57464 1.93099,0.64366 3.86197,0.64366 2.02293,-0.0919 4.04587,-0.73561 2.11488,-0.64366 4.22977,-1.56318 2.75855,-2.02293 3.95392,-4.32172 1.19537,-2.39074 1.47122,-4.96539 0.27586,-2.66659 -0.0919,-5.51709 -0.27585,-2.850498 -0.55171,-5.792949 -0.27585,-2.94245 -0.27585,-5.976852 0,-3.034401 1.01146,-5.976852 L 651.009,78.159308 q 2.57465,-1.471226 2.29879,-2.758547 -0.1839,-1.379274 -1.37927,-2.574644 -1.19537,-1.287322 -2.29879,-2.482693 -1.10342,-1.19537 -0.1839,-2.482692 -0.91952,0.643661 -2.20684,0.827564 -1.19537,0.09195 -2.20684,-0.275855 -1.01146,-0.367806 -1.65513,-1.19537 -0.64366,-0.919516 -0.3678,-2.390741 0.55171,-1.287322 1.19537,-2.758547 0.73561,-1.563177 1.93098,-2.850499 2.6666,0.643661 5.97685,0.55171 3.31026,-0.09195 6.71247,0.09195 3.49416,0.09195 6.71246,0.919516 3.31026,0.735613 5.97685,3.126353 -4.96538,1.839032 -7.44807,4.781482 -2.39074,2.94245 -3.31026,6.712465 -0.91952,3.678062 -0.82756,7.999786 0.0919,4.321724 0.27585,8.827351 0.27586,4.505626 0.0919,9.103202 -0.0919,4.50563 -1.56317,8.64345 -1.74708,3.67806 -3.95392,6.34466 -2.20684,2.57464 -4.50563,5.51709 -1.28732,-1.19537 -2.66659,-0.82756 -1.28733,0.3678 -2.75855,1.19537 -1.37927,0.82756 -2.8505,1.56318 -1.47122,0.73561 -2.94245,0.45975 -2.94245,-0.27585 -5.97685,-1.47122 -3.0344,-1.10342 -5.60905,-2.94245 -2.57464,-1.83903 -4.59758,-4.32173 -1.93098,-2.57464 -2.85049,-5.51709 -0.64367,-5.60905 -0.36781,-11.126139 0.36781,-5.517095 0.36781,-10.758334 0.0919,-5.333191 -0.64367,-10.390527 -0.73561,-5.057337 -3.4022,-9.838818 -0.91952,0.919516 -1.65513,0.919516 -0.73561,0 -1.37928,-0.55171 -0.64366,-0.551709 -1.28732,-1.287322 -0.55171,-0.827564 -1.19537,-1.379273 -0.27585,-2.666596 0.45976,-3.402208 0.82756,-0.827564 2.11489,-0.919516 1.37927,-0.183903 3.0344,-0.367806 1.65513,-0.183903 3.12635,-1.655129 z"
         style="font-style:normal;font-variant:normal;font-weight:normal;font-stretch:normal;font-size:91.9515686px;font-family:'My Underwood';-inkscape-font-specification:'My Underwood';stroke:#fffdfe;stroke-width:2;stroke-miterlimit:4;stroke-dasharray:none;stroke-opacity:1"
         id="path4165" />
      <path
         d="m 678.11169,61.88388 q 0.55171,-2.390741 1.56317,-3.310257 1.10342,-1.011467 2.39075,-1.103418 1.28732,-0.183903 2.75854,0.275854 1.47123,0.367807 2.94245,0.643661 1.56318,0.183903 2.94245,0.09195 1.47123,-0.183903 2.75855,-1.379274 l 6.25271,16.183476 q -0.55171,-0.735612 -0.73562,-0.275854 -0.1839,0.459758 -0.73561,1.011467 2.39074,2.94245 3.12636,6.712465 0.82756,3.770014 1.37927,7.723931 0.64366,3.861966 1.74708,7.63198 1.19537,3.770015 4.22977,6.804417 -1.19537,-1.65513 -1.10342,-2.75855 0.1839,-1.195368 0.91952,-2.114884 0.82756,-1.011467 1.93098,-1.839031 1.19537,-0.827564 1.93098,-1.74708 0.73562,-0.919515 0.73562,-1.930983 0.092,-1.103419 -1.28733,-2.482692 0.91952,-2.022935 2.02294,-4.965385 1.19537,-2.94245 2.20684,-6.344658 1.01146,-3.49416 1.83903,-7.356125 0.82756,-3.861966 1.19537,-7.723932 1.37927,-2.574644 3.12635,-3.678063 1.83903,-1.103419 3.77002,-1.19537 1.93098,-0.183904 3.95391,0.459757 2.11489,0.55171 4.13782,1.195371 2.02294,0.643661 3.86197,1.19537 1.93098,0.459758 3.58611,0.275855 -1.28732,1.19537 -2.29879,2.298789 -0.91951,1.011467 -2.02293,1.839032 -1.01147,0.827564 -2.29879,1.471225 -1.28732,0.551709 -3.0344,0.827564 0.82756,1.287322 0.64366,1.839031 -0.0919,0.55171 -0.82757,1.103419 -0.64366,0.551709 -1.56317,1.287322 -0.91952,0.735612 -1.47123,2.206838 0.55171,0.367806 0.91952,0.827564 0.3678,0.367806 0.64366,0.643661 0.27585,0.275854 0.64366,0.367806 0.3678,0.09195 1.01147,-0.183903 l 0,2.390741 q -0.64367,-0.643661 -0.82757,-1.011468 -0.1839,-0.459758 -0.82756,0.183903 l 1.65513,7.264174 q -0.64367,0 -0.82757,-0.367806 -0.1839,-0.367806 -0.82756,-0.367806 2.39074,2.666595 2.02293,5.241239 -0.27585,2.574644 -1.19537,5.057337 -0.91951,2.39074 -1.28732,4.873433 -0.27585,2.390745 2.11489,4.781485 -1.56318,0.64366 -1.74708,1.56317 -0.18391,0.82757 0.1839,1.83903 0.45976,0.91952 1.01147,1.93099 0.55171,1.01146 0.55171,1.93098 l 0,1.56318 -0.82757,0 q -0.91951,0.64366 -0.82756,1.19537 0.1839,0.55171 0.73561,1.10342 0.64366,0.55171 1.37927,1.01146 0.82757,0.36781 1.10342,0.73562 l 4.13782,-2.39074 q 0.55171,0.91951 0.82757,2.39074 0.27585,1.47122 0,2.85049 -0.18391,1.28733 -1.01147,2.11489 -0.82756,0.91952 -2.29879,0.64366 -2.11489,0 -4.87343,0 -2.75855,0.092 -5.5171,-0.3678 -2.66659,-0.36781 -4.96538,-1.37928 -2.20684,-0.91951 -3.12635,-3.0344 3.67806,-0.91952 5.14928,-2.6666 1.47123,-1.83903 2.02294,-4.13782 0.55171,-2.29879 0.64366,-5.05733 0.0919,-2.8505 1.01147,-5.8849 l 1.65512,0 q -1.83903,-1.195373 -2.11488,-2.75855 -0.1839,-1.655128 0.1839,-3.494159 0.45976,-1.839032 1.10342,-3.678063 0.73561,-1.930983 0.64366,-3.770015 0,-1.839031 -1.19537,-3.402208 -1.10342,-1.655128 -4.32172,-2.850498 l 0.82756,7.172222 q -0.55171,-0.275855 -1.19537,-1.011467 -0.55171,-0.735613 -1.19537,-1.379274 -0.55171,-0.643661 -1.19537,-0.735612 -0.64366,-0.183903 -1.28732,0.735612 0,1.287322 -0.18391,2.758547 -0.1839,1.379274 1.01147,2.022935 l 3.21831,0 q -2.8505,-0.367806 -4.04587,0.09195 -1.10342,0.459757 -1.37928,1.471225 -0.27585,1.011467 0,2.39074 0.36781,1.379274 0.45976,2.850499 0.18391,1.471225 -0.1839,2.850499 -0.36781,1.379275 -1.93098,2.390745 l 0,2.39074 -0.91952,0 -1.56318,16.82713 q -3.2183,0.82757 -5.14928,0.18391 -1.83904,-0.64366 -2.8505,-2.29879 -0.91952,-1.65513 -1.37928,-4.04587 -0.3678,-2.39074 -0.64366,-4.96539 -0.27585,-2.57464 -0.73561,-5.14928 -0.36781,-2.57465 -1.37927,-4.59758 l -3.12636,-14.344448 -2.39074,0 q 0.91952,-1.563176 1.19537,-2.666595 0.36781,-1.103419 0.27586,-1.930983 0,-0.827564 -0.45976,-1.379273 -0.36781,-0.643661 -1.01147,-1.287322 l 0.82757,0 q 0.91951,-0.919516 0.73561,-1.287322 -0.0919,-0.459758 -0.64366,-0.735613 -0.45976,-0.275855 -1.10342,-0.643661 -0.55171,-0.459758 -0.55171,-1.379273 l -1.65513,0 q -0.64366,2.39074 -0.3678,4.68953 0.27585,2.298789 0.64366,4.597578 0.3678,2.298789 0.45975,4.597578 0.18391,2.206838 -0.73561,4.597579 l 1.65513,0 q -2.11489,1.563177 -2.6666,3.953917 -0.45975,2.390741 -0.0919,5.057338 0.36781,2.57464 1.19537,5.14929 0.91952,2.57464 1.56318,4.32172 0.91952,0.91952 2.20684,1.65513 1.28732,0.64366 2.29879,1.47122 1.10342,0.82757 1.47122,2.02294 0.45976,1.10342 -0.45976,2.94245 -1.83903,1.56317 -3.58611,1.93098 -1.65513,0.45976 -3.4022,0.27586 -1.74708,-0.18391 -3.49416,-0.73562 -1.65513,-0.45975 -3.40221,-0.64366 -1.74708,-0.1839 -3.49416,0.18391 -1.74708,0.45975 -3.49416,2.11488 -0.27586,-0.64366 -1.19537,-1.74708 -0.82757,-1.10342 -1.37928,-2.39074 -0.45975,-1.28732 -0.27585,-2.57464 0.1839,-1.28732 2.02293,-2.11489 l 0.82757,0.82757 q 3.58611,-3.03441 5.33319,-6.62052 1.74708,-3.58611 2.20684,-7.54003 0.55171,-3.953914 0.1839,-8.275638 -0.36781,-4.321723 -0.82756,-8.735399 -0.45976,-4.413675 -0.82757,-8.82735 -0.27585,-4.505627 0.36781,-8.919302 l -6.43661,-4.137821 z m 45.79188,13.792735 -1.65513,0 1.65513,3.126354 0,-3.126354 z"
         style="font-style:normal;font-variant:normal;font-weight:normal;font-stretch:normal;font-size:91.9515686px;font-family:'My Underwood';-inkscape-font-specification:'My Underwood';stroke:#fffdfe;stroke-width:2;stroke-miterlimit:4;stroke-dasharray:none;stroke-opacity:1"
         id="path4167" />
      <path
         d="m 825.4842,86.067142 q 2.6666,0.275855 4.68953,1.195371 2.02294,0.827564 3.77002,1.930983 1.83903,1.103419 3.58611,2.482692 1.74708,1.287322 3.77001,2.482693 -1.93098,3.770014 -5.05733,5.517094 -3.12636,1.747075 -6.89637,2.206835 -3.67806,0.45976 -7.90784,0.0919 -4.13782,-0.45975 -8.27564,-1.10341 -4.13782,-0.64367 -7.90783,-1.103424 -3.77002,-0.459758 -6.80442,-0.09195 -1.83903,-0.643661 -3.2183,-1.655129 -1.37928,-1.011467 -2.11489,-2.206837 -0.73561,-1.287322 -0.64366,-2.666596 0.092,-1.471225 1.19537,-3.034401 2.02293,-0.55171 4.50563,-1.379274 2.48269,-0.919516 5.05733,-1.379274 2.6666,-0.459757 5.33319,-0.09195 2.6666,0.275855 5.14929,2.022934 1.47123,-1.471225 2.75855,-1.747079 1.37927,-0.367807 2.75855,-0.367807 1.37927,0 2.85049,-0.09195 1.56318,-0.09195 3.40221,-1.011468 z"
         style="font-style:normal;font-variant:normal;font-weight:normal;font-stretch:normal;font-size:91.9515686px;font-family:'My Underwood';-inkscape-font-specification:'My Underwood';stroke:#fffdfe;stroke-width:2;stroke-miterlimit:4;stroke-dasharray:none;stroke-opacity:1"
         id="path4169" />
      <path
         d="m 903.92608,56.090931 q 5.79295,0.919516 11.21809,0.919516 5.51709,-0.09195 10.94223,-0.09195 5.5171,0 10.94224,0.55171 5.5171,0.551709 11.31004,2.574644 l 1.47123,6.528561 -5.701,2.482692 q 2.20684,1.011468 2.94245,1.74708 0.82757,0.735613 0.64366,1.471225 -0.0919,0.643661 -0.91951,1.379274 -0.73562,0.735612 -1.56318,1.655128 -0.82756,0.919516 -1.47122,2.114886 -0.55171,1.19537 -0.36781,2.850499 -3.0344,-0.367807 -4.50563,-1.563177 -1.47122,-1.19537 -2.11488,-2.850499 -0.55171,-1.655128 -0.45976,-3.494159 0.0919,-1.930983 0.1839,-3.678063 0.0919,-1.839031 -0.0919,-3.218305 -0.0919,-1.471225 -1.01147,-2.114886 -0.91951,-0.643661 -3.0344,-0.367806 -2.02293,0.275854 -5.79295,1.930983 -0.91951,-2.022935 -2.02293,-1.930983 -1.01147,0 -2.11489,0.827564 -1.01147,0.735612 -2.02293,1.379273 -1.01147,0.643661 -1.93099,-0.275854 0,2.022934 -1.01146,2.94245 -0.91952,0.827564 -2.20684,1.103419 -1.19537,0.183903 -2.48269,0.183903 -1.19537,-0.09195 -1.74708,0.09195 -0.45976,0.09195 0,0.735613 0.55171,0.643661 2.75854,2.298789 l 2.29879,0 q -0.1839,1.195371 -0.82756,1.563177 -0.64366,0.275855 -1.47123,0.367806 -0.82756,0 -1.65512,-0.09195 -0.82757,-0.09195 -1.47123,0.275854 -0.55171,0.275855 -0.73561,1.195371 -0.0919,0.919515 0.55171,2.94245 l 9.74686,4.873433 q -1.01146,-1.379274 -0.91951,-2.390741 0.0919,-1.103419 0.73561,-1.930983 0.64366,-0.919515 1.47123,-1.655128 0.91951,-0.735613 1.37927,-1.471225 0.55171,-0.735613 0.36781,-1.563177 -0.18391,-0.919515 -1.56318,-2.114886 l 4.04587,-3.218305 5.60904,7.815884 -0.64366,0 q 0.55171,1.839031 0.27586,3.861966 -0.27586,2.022934 -0.64366,4.045869 -0.27586,1.930982 -0.27586,3.678062 0.0919,1.74708 1.28732,2.94245 l -1.56317,0 q -0.91952,1.471226 -0.64366,2.758548 0.3678,1.19537 0.73561,2.39074 0.3678,1.103419 0.1839,2.206838 -0.0919,1.103419 -1.83903,2.298791 -1.19537,-0.82757 -2.02293,-2.298791 -0.73562,-1.471225 -1.47123,-3.126353 -0.64366,-1.655129 -1.37927,-3.218305 -0.73562,-1.563177 -1.93099,-2.574644 -1.19537,-1.011467 -3.0344,-1.103419 -1.83903,-0.183903 -4.59758,1.011467 0,1.563177 -0.73561,2.482693 -0.73561,0.827564 -1.56318,1.655128 -0.73561,0.827564 -1.19537,1.930983 -0.3678,1.011467 0.18391,2.758547 0.64366,0.919516 1.65513,1.103419 1.10341,0.183903 2.02293,0.459755 1.01147,0.27586 1.56318,0.91952 0.64366,0.64366 0.3678,2.57464 -0.82756,0.55171 -1.47122,0.18391 -0.64366,-0.45976 -1.19537,-0.82757 -0.45976,-0.45976 -1.01147,-0.45976 -0.45976,-0.0919 -1.10342,1.10342 0,0.55171 0,1.28732 0.0919,0.64367 0.27586,1.19537 0.27585,0.55171 0.73561,1.01147 0.55171,0.36781 1.47122,0.36781 l 1.56318,0 -4.87343,1.56317 6.43661,5.701 q 1.47122,-2.11488 2.8505,-2.02293 1.37927,0 2.75854,0.82756 1.37928,0.73561 2.75855,1.47123 1.37927,0.64366 2.94245,-0.27586 3.31026,1.37928 5.24124,1.19537 1.93098,-0.27585 2.94245,-1.47122 1.01147,-1.28732 1.37927,-3.21831 0.45976,-1.93098 0.73562,-3.95392 0.27585,-2.02293 0.64366,-3.86196 0.3678,-1.83903 1.28732,-2.94245 1.01147,-1.10342 2.8505,-1.10342 1.83903,0 5.05733,1.65513 -1.28732,1.28732 -2.39074,1.74708 -1.10342,0.3678 -1.83903,1.47122 l 4.22977,4.78148 q -1.28732,0.64367 -2.39074,0.82757 -1.10342,0.1839 -1.83903,0.73561 l 4.87343,4.96539 q -6.34465,3.0344 -13.14907,4.04587 -6.80442,0.91951 -13.70078,0.82756 -6.89637,-0.0919 -13.70079,-0.73561 -6.80441,-0.73562 -13.14907,-1.01147 l -0.82757,0 q 0,-1.83903 0.82757,-2.75855 0.91951,-0.91951 2.20684,-1.37927 1.37927,-0.55171 2.8505,-0.82757 1.47122,-0.27585 2.66659,-0.82756 1.28732,-0.55171 2.02294,-1.56318 0.73561,-1.01146 0.5517,-3.0344 -0.27585,-5.42514 0,-11.034186 0.27586,-5.700997 0.18391,-11.218092 -0.0919,-5.517094 -0.91952,-10.666381 -0.82756,-5.149288 -3.2183,-9.746867 -1.47123,0.367807 -2.94245,0 -1.47123,-0.367806 -2.8505,-1.011467 -1.37928,-0.735613 -2.57465,-1.471225 -1.19537,-0.827564 -2.11488,-1.379274 0.3678,-2.758547 1.56317,-3.586111 1.28733,-0.919515 3.03441,-1.011467 1.83903,-0.183903 3.95391,-0.183903 2.11489,0 4.22978,-0.919516 z"
         style="font-style:normal;font-variant:normal;font-weight:normal;font-stretch:normal;font-size:91.9515686px;font-family:'My Underwood';-inkscape-font-specification:'My Underwood';stroke:#fffdfe;stroke-width:2;stroke-miterlimit:4;stroke-dasharray:none;stroke-opacity:1"
         id="path4171" />
      <path
         d="m 955.93761,78.527114 q 0,-2.574644 1.19537,-4.045869 1.28732,-1.563177 3.21831,-2.114886 2.02293,-0.643661 4.41367,-0.459758 2.48269,0.183903 4.87344,1.011467 2.39074,0.735613 4.41367,2.022935 2.02294,1.287322 3.21831,2.850498 7.17222,-5.333191 13.42492,-4.965384 6.25271,0.367806 12.7813,5.700997 1.1953,1.563177 1.2873,3.126353 0.1839,1.471225 0,3.126354 -0.092,1.655128 -0.1839,3.494159 -0.092,1.74708 0.5517,3.770014 -1.839,0.367807 -3.5861,0.735613 -1.74709,0.275855 -3.40222,0.275855 -1.65513,-0.09195 -3.12635,-0.827564 -1.37928,-0.735613 -2.57465,-2.574644 l -3.2183,-6.252707 q -4.22977,0.551709 -7.81588,3.310256 -3.58611,2.758548 -4.87344,6.98832 0.27586,1.839031 0,4.229772 -0.27585,2.390745 -0.3678,5.057335 -0.0919,2.6666 0.45975,5.42514 0.55171,2.6666 2.39075,5.05734 1.19537,0 3.0344,0.0919 1.93098,0.0919 3.77001,0.55171 1.83903,0.36781 3.21831,1.37927 1.47122,1.01147 1.74708,2.75855 -0.82757,2.11489 -2.57465,2.48269 -1.65513,0.45976 -3.58611,0.36781 -1.93098,-0.0919 -3.95392,-0.0919 -1.93098,0 -3.4022,1.19537 -2.39075,-0.91952 -5.14929,-1.01147 -2.75855,0 -5.701,0 -2.8505,0 -5.79295,-0.3678 -2.8505,-0.27586 -5.42514,-1.83904 -0.91952,-0.82756 -0.55171,-1.83903 0.45976,-1.01146 1.37927,-1.83903 1.01147,-0.91951 2.11489,-1.65513 1.19537,-0.73561 1.74708,-1.01146 1.47122,1.19537 2.11489,0.91951 0.64366,-0.3678 1.10341,-1.10342 0.55171,-0.73561 1.28733,-1.28732 0.82756,-0.64366 2.66659,-0.092 1.19537,-3.58611 1.56318,-7.17222 0.3678,-3.58611 0.27585,-7.080274 -0.0919,-3.586111 -0.45975,-7.080271 -0.27586,-3.586111 -0.55171,-7.080271 -0.82757,-0.827564 -2.02294,-0.919515 -1.10342,-0.183903 -2.39074,0 -1.19537,0.09195 -2.48269,0.275854 -1.28732,0.183904 -2.39074,0 -1.01147,-0.183903 -1.74708,-0.919515 -0.73562,-0.735613 -0.91952,-2.574644 z"
         style="font-style:normal;font-variant:normal;font-weight:normal;font-stretch:normal;font-size:91.9515686px;font-family:'My Underwood';-inkscape-font-specification:'My Underwood';stroke:#fffdfe;stroke-width:2;stroke-miterlimit:4;stroke-dasharray:none;stroke-opacity:1"
         id="path4173" />
      <path
         d="m 1011.9706,78.527114 q 0,-2.574644 1.1954,-4.045869 1.2873,-1.563177 3.2183,-2.114886 2.0229,-0.643661 4.4137,-0.459758 2.4827,0.183903 4.8734,1.011467 2.3908,0.735613 4.4137,2.022935 2.0229,1.287322 3.2183,2.850498 7.1722,-5.333191 13.4249,-4.965384 6.2527,0.367806 12.7813,5.700997 1.1954,1.563177 1.2873,3.126353 0.1839,1.471225 0,3.126354 -0.092,1.655128 -0.1839,3.494159 -0.092,1.74708 0.5517,3.770014 -1.839,0.367807 -3.5861,0.735613 -1.7471,0.275855 -3.4022,0.275855 -1.6551,-0.09195 -3.1264,-0.827564 -1.3792,-0.735613 -2.5746,-2.574644 l -3.2183,-6.252707 q -4.2298,0.551709 -7.8159,3.310256 -3.5861,2.758548 -4.8734,6.98832 0.2758,1.839031 0,4.229772 -0.2759,2.390745 -0.3678,5.057335 -0.092,2.6666 0.4597,5.42514 0.5517,2.6666 2.3908,5.05734 1.1953,0 3.0344,0.0919 1.931,0.0919 3.77,0.55171 1.839,0.36781 3.2183,1.37927 1.4712,1.01147 1.7471,2.75855 -0.8276,2.11489 -2.5747,2.48269 -1.6551,0.45976 -3.5861,0.36781 -1.931,-0.0919 -3.9539,-0.0919 -1.931,0 -3.4022,1.19537 -2.3907,-0.91952 -5.1493,-1.01147 -2.7585,0 -5.701,0 -2.8505,0 -5.7929,-0.3678 -2.8505,-0.27586 -5.4252,-1.83904 -0.9195,-0.82756 -0.5517,-1.83903 0.4598,-1.01146 1.3793,-1.83903 1.0115,-0.91951 2.1149,-1.65513 1.1953,-0.73561 1.747,-1.01146 1.4713,1.19537 2.1149,0.91951 0.6437,-0.3678 1.1035,-1.10342 0.5517,-0.73561 1.2873,-1.28732 0.8275,-0.64366 2.6666,-0.092 1.1953,-3.58611 1.5631,-7.17222 0.3679,-3.58611 0.2759,-7.080274 -0.092,-3.586111 -0.4598,-7.080271 -0.2758,-3.586111 -0.5517,-7.080271 -0.8275,-0.827564 -2.0229,-0.919515 -1.1034,-0.183903 -2.3907,0 -1.1954,0.09195 -2.4827,0.275854 -1.2874,0.183904 -2.3908,0 -1.0114,-0.183903 -1.7471,-0.919515 -0.7356,-0.735613 -0.9195,-2.574644 z"
         style="font-style:normal;font-variant:normal;font-weight:normal;font-stretch:normal;font-size:91.9515686px;font-family:'My Underwood';-inkscape-font-specification:'My Underwood';stroke:#fffdfe;stroke-width:2;stroke-miterlimit:4;stroke-dasharray:none;stroke-opacity:1"
         id="path4175" />
      <path
         d="m 1106.2555,84.871772 q 0.6437,3.310257 1.6551,5.976852 1.0115,2.666596 1.7471,5.333191 0.7356,2.574644 0.8276,5.425145 0.1839,2.75854 -0.9195,6.34466 -1.5632,2.11488 -3.1264,4.50562 -1.5632,2.29879 -3.4022,4.41368 -1.7471,2.02293 -3.862,3.58611 -2.1149,1.47122 -4.7814,1.74708 -3.862,0.64366 -8.0918,0.36781 -4.2298,-0.18391 -8.1837,-1.65513 -3.8619,-1.37928 -6.9883,-4.13782 -3.1263,-2.8505 -4.5976,-7.26418 -0.2758,-2.02293 -0.1839,-4.59758 0.092,-2.57464 0.1839,-5.241235 0.1839,-2.758547 0.1839,-5.333191 0.092,-2.574644 -0.1839,-4.68953 0.2759,-3.586112 2.2988,-6.068804 2.1149,-2.482692 4.9654,-4.13782 2.9425,-1.74708 6.3447,-2.850499 3.4022,-1.103419 6.3446,-2.022935 2.6666,-0.551709 5.3332,0.367807 2.6666,0.827564 5.1493,2.482692 2.4827,1.563177 4.7815,3.678063 2.3907,2.022934 4.5056,3.770014 z m -15.9076,-1.471225 q -1.1954,0.827564 -3.4022,0.827564 -2.2069,0 -4.4137,0.275855 -2.1149,0.183903 -3.5861,1.19537 -1.4712,1.011467 -1.1954,3.953918 l -2.3907,-0.735613 q 0,2.390741 -0.7356,4.781482 -0.7356,2.39074 -0.7356,4.781481 -0.2759,3.218306 0.4597,5.425146 0.8276,2.20683 2.3908,3.95391 1.5631,1.65513 3.678,3.21831 2.1149,1.47122 4.5056,3.2183 1.1954,0.27586 3.1264,0.27586 1.931,-0.0919 4.0459,-0.73561 2.2068,-0.73562 4.2297,-2.11489 2.1149,-1.37927 3.4942,-3.77001 2.3907,-4.22978 2.3907,-9.103209 0,-4.965385 -2.3907,-9.195157 -1.3793,0.275854 -2.2988,-0.643661 -0.8276,-0.919516 -1.7471,-2.114886 -0.8275,-1.287322 -2.1149,-2.390741 -1.1953,-1.103419 -3.3102,-1.103419 z"
         style="font-style:normal;font-variant:normal;font-weight:normal;font-stretch:normal;font-size:91.9515686px;font-family:'My Underwood';-inkscape-font-specification:'My Underwood';stroke:#fffdfe;stroke-width:2;stroke-miterlimit:4;stroke-dasharray:none;stroke-opacity:1"
         id="path4177" />
      <path
         d="m 1116.3141,78.527114 q 0,-2.574644 1.1953,-4.045869 1.2874,-1.563177 3.2184,-2.114886 2.0229,-0.643661 4.4136,-0.459758 2.4827,0.183903 4.8735,1.011467 2.3907,0.735613 4.4136,2.022935 2.023,1.287322 3.2183,2.850498 7.1723,-5.333191 13.425,-4.965384 6.2527,0.367806 12.7812,5.700997 1.1954,1.563177 1.2874,3.126353 0.1839,1.471225 0,3.126354 -0.092,1.655128 -0.1839,3.494159 -0.092,1.74708 0.5517,3.770014 -1.8391,0.367807 -3.5861,0.735613 -1.7471,0.275855 -3.4023,0.275855 -1.6551,-0.09195 -3.1263,-0.827564 -1.3793,-0.735613 -2.5747,-2.574644 l -3.2183,-6.252707 q -4.2297,0.551709 -7.8158,3.310256 -3.5862,2.758548 -4.8735,6.98832 0.2759,1.839031 0,4.229772 -0.2758,2.390745 -0.3678,5.057335 -0.092,2.6666 0.4598,5.42514 0.5517,2.6666 2.3907,5.05734 1.1954,0 3.0344,0.0919 1.931,0.0919 3.77,0.55171 1.8391,0.36781 3.2183,1.37927 1.4713,1.01147 1.7471,2.75855 -0.8275,2.11489 -2.5746,2.48269 -1.6552,0.45976 -3.5861,0.36781 -1.931,-0.0919 -3.954,-0.0919 -1.9309,0 -3.4022,1.19537 -2.3907,-0.91952 -5.1492,-1.01147 -2.7586,0 -5.701,0 -2.8505,0 -5.793,-0.3678 -2.8505,-0.27586 -5.4251,-1.83904 -0.9196,-0.82756 -0.5517,-1.83903 0.4597,-1.01146 1.3792,-1.83903 1.0115,-0.91951 2.1149,-1.65513 1.1954,-0.73561 1.7471,-1.01146 1.4712,1.19537 2.1149,0.91951 0.6436,-0.3678 1.1034,-1.10342 0.5517,-0.73561 1.2873,-1.28732 0.8276,-0.64366 2.6666,-0.092 1.1954,-3.58611 1.5632,-7.17222 0.3678,-3.58611 0.2758,-7.080274 -0.092,-3.586111 -0.4597,-7.080271 -0.2759,-3.586111 -0.5517,-7.080271 -0.8276,-0.827564 -2.023,-0.919515 -1.1034,-0.183903 -2.3907,0 -1.1954,0.09195 -2.4827,0.275854 -1.2873,0.183904 -2.3907,0 -1.0115,-0.183903 -1.7471,-0.919515 -0.7356,-0.735613 -0.9195,-2.574644 z"
         style="font-style:normal;font-variant:normal;font-weight:normal;font-stretch:normal;font-size:91.9515686px;font-family:'My Underwood';-inkscape-font-specification:'My Underwood';stroke:#fffdfe;stroke-width:2;stroke-miterlimit:4;stroke-dasharray:none;stroke-opacity:1"
         id="path4179" />
    </g>
  </g>
</svg>
